# xmcd
#
# Track frame offsets: 
#        150
#        12783
#        34406
#        49782
#        61408
#
# Disc length: 1006 seconds
#
# Revision: 0
# Processed by: cddbd v1.5.2PL0 Copyright (c) Steve Scherf et al.
# Submitted via: ExactAudioCopyFreeDBPlugin 1.0
#
DISCID=3b03ec05
DTITLE=June Noa - While The City Is Sleeping
DYEAR=2012
DGENRE=Blues
TTITLE0=Work
TTITLE1=If I Ever Leave You
TTITLE2=High Heels ft Pras Michel
TTITLE3=Spin Around
TTITLE4=Why
EXTD=
EXTT0=
EXTT1=
EXTT2=
EXTT3=
EXTT4=
PLAYORDER=
